<?xml version="1.0" encoding="UTF-8"?>
<svg width="42px" height="30px" viewBox="0 0 42 30" version="1.1" xmlns="http://www.w3.org/2000/svg" xmlns:xlink="http://www.w3.org/1999/xlink">
    <title>arriw price@3x</title>
    <g id="FInal" stroke="none" stroke-width="1" fill="none" fill-rule="evenodd">
        <g id="02-01-Prcing" transform="translate(-752.000000, -317.000000)" fill="#3F55FF">
            <path d="M793.357872,319.023661 C793.217461,318.219468 792.621464,317.7225 791.800006,317.7225 C791.793337,317.7225 791.786668,317.7225 791.779999,317.7225 C790.670408,317.733463 789.81999,317.997842 789.180235,318.530895 C787.864184,319.627148 786.552243,320.76917 785.283604,321.873644 C784.889227,322.216954 784.494759,322.560355 784.099834,322.902752 C783.84596,323.122733 783.597385,323.353768 783.357031,323.577221 C783.245396,323.680909 783.133304,323.785144 783.019659,323.889197 L782.611305,324.263202 L783.056201,324.592991 C783.83783,325.172361 785.196726,325.101652 785.907281,324.444814 L786.851155,323.572197 C787.099547,323.342532 787.34794,323.112867 787.596424,322.883202 C785.846987,326.971312 783.556641,330.585931 780.784857,333.632418 C777.88006,336.824889 774.361728,339.486317 770.327609,341.542522 C766.06894,343.713469 761.358068,345.004489 756.325993,345.379956 C755.9508,345.40791 755.56227,345.417594 755.186438,345.427003 C754.876929,345.434586 754.556915,345.442533 754.239184,345.460622 C754.023679,345.472772 753.824618,345.515708 753.632134,345.557275 C753.55567,345.57381 753.479115,345.590436 753.402378,345.604413 L752.911805,345.693941 L753.176001,346.655355 L753.50369,346.673899 C754.079223,346.706422 754.660145,346.7225 755.24664,346.7225 C761.389128,346.7225 768.063938,344.952782 773.825021,341.762686 C777.607002,339.668478 780.959526,336.994535 783.789412,333.815127 C786.540367,330.724425 788.795633,327.152285 790.50999,323.17444 C790.495921,323.679812 790.46751,324.291887 790.419275,325.017515 C790.300606,326.797921 790.113055,328.466509 789.928611,329.412119 L789.015797,329.61657 L789.335812,330.157479 C789.389528,330.248194 789.439408,330.346492 789.487643,330.441591 C789.615996,330.69446 789.748642,330.955917 789.982875,331.154521 C790.227522,331.362079 790.587733,331.471978 791.084061,331.490614 C791.664344,331.510347 792.093619,331.201021 792.201965,330.677651 C792.272491,330.337356 792.351969,329.989661 792.428889,329.653477 C792.610228,328.861069 792.797687,328.041528 792.892604,327.212487 C793.128755,325.148608 793.287164,323.045447 793.440365,321.011715 L793.476085,320.538226 C793.514911,320.024905 793.442192,319.506926 793.357872,319.023661" id="arriw-price"></path>
        </g>
    </g>
</svg>