<?xml version="1.0" encoding="UTF-8"?>
<svg width="20px" height="20px" viewBox="0 0 20 20" version="1.1" xmlns="http://www.w3.org/2000/svg" xmlns:xlink="http://www.w3.org/1999/xlink">
    <title>done copy 12@3x</title>
    <g id="FInal" stroke="none" stroke-width="1" fill="none" fill-rule="evenodd">
        <g id="03-01-Product" transform="translate(-706.000000, -570.000000)">
            <g id="done-copy-12" transform="translate(706.000000, 570.000000)">
                <circle id="Oval" fill="#4ACA77" cx="10" cy="10" r="10"></circle>
                <g id="💈Icons/System/Selected">
                    <rect id="Icons/ic_action_reservation-dialog" x="0" y="0" width="20" height="20"></rect>
                    <path d="M8.56774935,12.8251892 L6.16524282,10.2503489 C5.94491906,10.0142211 5.94491906,9.62792793 6.16524282,9.3920688 L6.36576501,9.17689435 C6.58558747,8.94103522 6.94627676,8.94103522 7.16634987,9.17689435 L8.99987467,11.1419394 L12.8336501,7.17689435 C13.0537232,6.94103522 13.4144125,6.94103522 13.634235,7.17689435 L13.8347572,7.3920688 C14.0550809,7.62792793 14.0550809,8.01422114 13.8347572,8.2503489 L9.43174935,12.8251892 C9.31369191,12.9519836 9.15502872,13.0083964 8.99987467,12.9989943 C8.84472063,13.0083964 8.68630809,12.9519836 8.56774935,12.8251892 Z" id="Arrow-Drop-Down" fill="#FFFFFF"></path>
                </g>
            </g>
        </g>
    </g>
</svg>