<?xml version="1.0" encoding="UTF-8"?>
<svg width="71px" height="52px" viewBox="0 0 71 52" version="1.1" xmlns="http://www.w3.org/2000/svg" xmlns:xlink="http://www.w3.org/1999/xlink">
    <title>icons/logo</title>
    <g id="icons/logo" stroke="none" stroke-width="1" fill="none" fill-rule="evenodd">
        <path d="M6.585,38 L11.728,29.49 L16.908,38 L24.012,38 L15.502,24.939 L23.938,11.767 L17.093,11.767 L11.913,20.277 L6.733,11.767 L-0.297,11.767 L8.176,24.865 L-0.297,38 L6.585,38 Z M37.739,38.592 C43.511,38.592 48.136,35.114 48.136,28.528 L48.136,11.767 L42.29,11.767 L42.29,28.047 C42.29,31.229 40.514,32.82 37.739,32.82 C34.964,32.82 33.188,31.229 33.188,28.047 L33.188,11.767 L27.342,11.767 L27.342,28.528 C27.342,35.114 31.967,38.592 37.739,38.592 Z M70.78,38 L70.78,32.413 L59.458,32.413 L59.458,11.767 L53.612,11.767 L53.612,38 L70.78,38 Z" id="XUL" fill="#292929" fill-rule="nonzero"></path>
    </g>
</svg>